HIERARCHY
ROOT Torso
{
	OFFSET 0.000000 0.000000 0.000000
	CHANNELS 6 Xposition Yposition Zposition Zrotation Yrotation Xrotation
	JOINT LHip
	{
		OFFSET 0.000000 -0.010000 -0.060000
		CHANNELS 6 Xposition Yposition Zposition Zrotation Yrotation Xrotation
		JOINT LeftThigh
		{
			OFFSET 0.055000 0.000000 -0.055000
			CHANNELS 6 Xposition Yposition Zposition Zrotation Yrotation Xrotation
			JOINT LeftLeg
			{
				OFFSET 0.000000 0.015000 -0.120000
				CHANNELS 6 Xposition Yposition Zposition Zrotation Yrotation Xrotation
				JOINT LeftFoot
				{
					OFFSET 0.000000 -0.010000 -0.100000
					CHANNELS 6 Xposition Yposition Zposition Zrotation Yrotation Xrotation
					End Site
					{
						OFFSET 0.000000 0.090000 -0.035000
					}
				}
			}
		}
	}
	JOINT RHip
	{
		OFFSET 0.000000 -0.010000 -0.060000
		CHANNELS 6 Xposition Yposition Zposition Zrotation Yrotation Xrotation
		JOINT RightThigh
		{
			OFFSET -0.055000 0.000000 -0.055000
			CHANNELS 6 Xposition Yposition Zposition Zrotation Yrotation Xrotation
			JOINT RightLeg
			{
				OFFSET 0.000000 0.015000 -0.120000
				CHANNELS 6 Xposition Yposition Zposition Zrotation Yrotation Xrotation
				JOINT RightFoot
				{
					OFFSET 0.000000 -0.010000 -0.100000
					CHANNELS 6 Xposition Yposition Zposition Zrotation Yrotation Xrotation
					End Site
					{
						OFFSET 0.000000 0.090000 -0.035000
					}
				}
			}
		}
	}
	JOINT Neck
	{
		OFFSET 0.000000 -0.000000 0.040000
		CHANNELS 6 Xposition Yposition Zposition Zrotation Yrotation Xrotation
		JOINT Head
		{
			OFFSET 0.000000 -0.000000 0.100000
			CHANNELS 6 Xposition Yposition Zposition Zrotation Yrotation Xrotation
			End Site
			{
				OFFSET 0.000000 -0.000000 0.070000
			}
		}
	}
	JOINT LeftUpperarm
	{
		OFFSET 0.098000 -0.000000 0.075000
		CHANNELS 6 Xposition Yposition Zposition Zrotation Yrotation Xrotation
		JOINT LeftLowerarm
		{
			OFFSET 0.000000 0.090000 0.009000
			CHANNELS 6 Xposition Yposition Zposition Zrotation Yrotation Xrotation
			End Site
			{
				OFFSET 0.000000 0.105000 0.000000
			}
		}
	}
	JOINT RightUpperarm
	{
		OFFSET -0.098000 -0.000000 0.075000
		CHANNELS 6 Xposition Yposition Zposition Zrotation Yrotation Xrotation
		JOINT RightLowerarm
		{
			OFFSET 0.000000 0.090000 0.009000
			CHANNELS 6 Xposition Yposition Zposition Zrotation Yrotation Xrotation
			End Site
			{
				OFFSET 0.000000 0.105000 0.000000
			}
		}
	}
}
MOTION
Frames: 12
Frame Time: 0.041667
0.000000 0.000000 0.000000 176.215247 1.602149 -13.233973 -0.000000 -0.010000 -0.060000 -47.790960 16.433077 34.680986 0.055000 0.000000 -0.055000 -126.842200 -16.083905 22.131368 0.000000 0.015000 -0.120000 -1.141397 -0.200628 -12.553919 -0.000000 -0.010000 -0.100000 -7.132495 157.764010 -17.132263 0.000000 -0.010000 -0.060000 48.801825 -16.233811 37.132569 -0.055000 0.000000 -0.055000 134.477436 20.576986 32.612453 -0.000000 0.015000 -0.120000 0.819145 -1.506770 -27.439358 0.000000 -0.010000 -0.100000 2.122330 -156.058280 -22.771330 0.000000 0.000000 0.040000 7.024973 -4.766029 14.677310 0.000000 -0.000000 0.100000 4.990283 0.205789 -4.825009 0.098000 -0.000000 0.075000 121.803856 -6.161384 -121.223659 -0.000000 0.090000 0.009000 10.925597 -3.864653 38.386421 -0.098000 -0.000000 0.075000 -139.286600 5.259048 -114.652279 -0.000000 0.090000 0.009000 6.857747 1.283579 18.073657 
0.000000 0.000000 0.000000 175.919158 1.634977 -13.309202 0.000000 -0.010000 -0.060000 -47.803265 16.401393 34.636412 0.055000 0.000000 -0.055000 -126.922728 -16.071698 21.817383 0.000000 0.015000 -0.120000 -1.138564 -0.200138 -12.174109 -0.000000 -0.010000 -0.100000 -6.713499 157.719846 -17.008349 -0.000000 -0.010000 -0.060000 48.706943 -16.398468 37.249564 -0.055000 0.000000 -0.055000 134.534755 20.390507 34.292034 -0.000000 0.015000 -0.120000 0.796084 -1.439320 -29.742260 -0.000000 -0.010000 -0.100000 1.307806 -156.087048 -20.850891 -0.000000 -0.000000 0.040000 7.143866 -4.761456 14.749332 0.000000 -0.000000 0.100000 5.108047 0.241344 -4.869769 0.098000 -0.000000 0.075000 121.422308 -6.460036 -121.413333 0.000000 0.090000 0.009000 11.872254 -4.144236 39.302893 -0.098000 -0.000000 0.075000 -139.074331 5.576224 -114.882716 -0.000000 0.090000 0.009000 6.643834 1.319364 18.324383 
0.000000 0.000000 0.000000 175.638929 1.649751 -13.369826 -0.000000 -0.010000 -0.060000 -47.815542 16.368338 34.587019 0.055000 0.000000 -0.055000 -127.004239 -16.071966 21.457934 0.000000 0.015000 -0.120000 -1.136408 -0.201674 -11.687286 -0.000000 -0.010000 -0.100000 -6.287022 157.680477 -16.822179 0.000000 -0.010000 -0.060000 48.608486 -16.568538 37.367514 -0.055000 0.000000 -0.055000 134.562322 20.188765 36.047601 -0.000000 0.015000 -0.120000 0.767800 -1.367169 -32.133964 0.000000 -0.010000 -0.100000 0.563640 -156.115694 -19.184936 0.000000 0.000000 0.040000 7.245670 -4.713935 14.799466 0.000000 -0.000000 0.100000 5.205227 0.271177 -4.908295 0.098000 -0.000000 0.075000 121.087752 -6.759542 -121.632063 0.000000 0.090000 0.009000 12.895123 -4.453977 40.322329 -0.098000 0.000000 0.075000 -138.882799 5.870223 -115.106555 0.000000 0.090000 0.009000 6.440245 1.346171 18.520519 
0.000000 0.000000 0.000000 175.374601 1.660850 -13.440970 0.000000 -0.010000 -0.060000 -47.825954 16.338617 34.534072 0.055000 0.000000 -0.055000 -127.057583 -16.070190 21.041052 0.000000 0.015000 -0.120000 -1.135585 -0.204876 -11.107285 -0.000000 -0.010000 -0.100000 -5.861184 157.625712 -16.621965 0.000000 -0.010000 -0.060000 48.509619 -16.737918 37.485482 -0.055000 0.000000 -0.055000 134.593754 19.991281 37.818655 -0.000000 0.015000 -0.120000 0.736705 -1.292930 -34.566057 0.000000 -0.010000 -0.100000 -0.023917 -156.122237 -17.933314 -0.000000 -0.000000 0.040000 7.324399 -4.647983 14.853629 0.000000 -0.000000 0.100000 5.337936 0.290806 -4.912080 0.098000 -0.000000 0.075000 120.868148 -6.995082 -121.844755 0.000000 0.090000 0.009000 13.867357 -4.767008 41.346099 -0.098000 -0.000000 0.075000 -138.715063 6.157774 -115.335162 -0.000000 0.090000 0.009000 6.260579 1.367157 18.631113 
0.000000 0.000000 0.000000 175.134219 1.691143 -13.503374 0.000000 -0.010000 -0.060000 -47.835667 16.309051 34.481534 0.055000 0.000000 -0.055000 -127.111118 -16.034672 20.598980 0.000000 0.015000 -0.120000 -1.135492 -0.209453 -10.461145 -0.000000 -0.010000 -0.100000 -5.481321 157.562274 -16.453381 -0.000000 -0.010000 -0.060000 48.406223 -16.909231 37.600198 -0.055000 0.000000 -0.055000 134.596350 19.847242 39.602560 0.000000 0.015000 -0.120000 0.702563 -1.217556 -37.020086 0.000000 -0.010000 -0.100000 -0.440305 -156.081939 -17.136064 -0.000000 -0.000000 0.040000 7.407147 -4.609662 14.896185 0.000000 -0.000000 0.100000 5.465481 0.302780 -4.932217 0.098000 -0.000000 0.075000 120.682790 -7.170873 -122.050399 0.000000 0.090000 0.009000 14.832862 -5.086771 42.348819 -0.098000 -0.000000 0.075000 -138.574006 6.440710 -115.556269 -0.000000 0.090000 0.009000 6.164614 1.375621 18.694231 
0.000000 0.000000 0.000000 174.945187 1.737916 -13.568199 0.000000 -0.010000 -0.060000 -47.842682 16.283393 34.428374 0.055000 0.000000 -0.055000 -127.123535 -15.983199 20.148641 0.000000 0.015000 -0.120000 -1.135136 -0.215804 -9.786309 0.000000 -0.010000 -0.100000 -5.135323 157.500761 -16.251844 -0.000000 -0.010000 -0.060000 48.303709 -17.073936 37.709864 -0.055000 0.000000 -0.055000 134.570054 19.758759 41.347909 0.000000 0.015000 -0.120000 0.667156 -1.143951 -39.460004 0.000000 -0.010000 -0.100000 -0.878120 -156.097389 -16.223277 0.000000 0.000000 0.040000 7.392912 -4.585647 14.945265 0.000000 -0.000000 0.100000 5.608865 0.374239 -4.952405 0.098000 -0.000000 0.075000 120.546678 -7.276028 -122.238639 0.000000 0.090000 0.009000 15.760603 -5.406909 43.349435 -0.098000 -0.000000 0.075000 -138.499079 6.727379 -115.769002 -0.000000 0.090000 0.009000 6.090432 1.381297 18.704569 
0.000000 0.000000 0.000000 174.782273 1.779808 -13.644634 -0.000000 -0.010000 -0.060000 -47.848696 16.259019 34.374481 0.055000 0.000000 -0.055000 -127.101474 -15.926729 19.672212 0.000000 0.015000 -0.120000 -1.135851 -0.223825 -9.107309 -0.000000 -0.010000 -0.100000 -4.838865 157.466214 -15.939705 0.000000 -0.010000 -0.060000 48.201106 -17.233915 37.814471 -0.055000 0.000000 -0.055000 134.515863 19.688893 43.061539 0.000000 0.015000 -0.120000 0.629549 -1.071769 -41.898908 0.000000 -0.010000 -0.100000 -1.355109 -156.202342 -15.019202 -0.000000 -0.000000 0.040000 7.374439 -4.542570 14.996973 0.000000 -0.000000 0.100000 5.747484 0.411423 -4.954613 0.098000 -0.000000 0.075000 120.418831 -7.348583 -122.413191 0.000000 0.090000 0.009000 16.679471 -5.737194 44.360562 -0.098000 -0.000000 0.075000 -138.460570 7.045372 -116.031349 -0.000000 0.090000 0.009000 5.984776 1.396517 18.735701 
0.000000 0.000000 0.000000 174.660491 1.842664 -13.703851 0.000000 -0.010000 -0.060000 -47.854310 16.236429 34.321547 0.055000 0.000000 -0.055000 -127.091789 -15.843404 19.226738 0.000000 0.015000 -0.120000 -1.135166 -0.231740 -8.437229 -0.000000 -0.010000 -0.100000 -4.571740 157.415848 -15.737342 -0.000000 -0.010000 -0.060000 48.096208 -17.390218 37.916900 -0.055000 0.000000 -0.055000 134.450580 19.666148 44.767211 -0.000000 0.015000 -0.120000 0.590478 -1.002577 -44.322522 0.000000 -0.010000 -0.100000 -1.651224 -156.267078 -14.219082 -0.000000 0.000000 0.040000 7.332095 -4.493421 15.030414 0.000000 -0.000000 0.100000 5.884587 0.429645 -4.962987 0.098000 -0.000000 0.075000 120.182984 -7.380926 -122.592306 0.000000 0.090000 0.009000 17.619924 -6.081294 45.391115 -0.098000 -0.000000 0.075000 -138.467428 7.351477 -116.285487 -0.000000 0.090000 0.009000 5.907807 1.406201 18.727446 
0.000000 0.000000 0.000000 174.554773 1.920047 -13.774568 -0.000000 -0.010000 -0.060000 -47.858835 16.215357 34.270747 0.055000 0.000000 -0.055000 -127.105818 -15.729584 18.783510 0.000000 0.015000 -0.120000 -1.134555 -0.239613 -7.774544 -0.000000 -0.010000 -0.100000 -4.270877 157.381642 -15.434619 0.000000 -0.010000 -0.060000 47.992686 -17.541270 38.015385 -0.055000 -0.000000 -0.055000 134.392277 19.675955 46.439522 -0.000000 0.015000 -0.120000 0.551016 -0.937295 -46.729402 0.000000 -0.010000 -0.100000 -1.756754 -156.279304 -13.831613 0.000000 -0.000000 0.040000 7.253441 -4.469860 15.063605 0.000000 -0.000000 0.100000 6.005272 0.484103 -4.942758 0.098000 -0.000000 0.075000 120.016287 -7.377884 -122.774727 0.000000 0.090000 0.009000 18.537111 -6.436133 46.417067 -0.098000 -0.000000 0.075000 -138.497426 7.686361 -116.546865 -0.000000 0.090000 0.009000 5.851826 1.413853 18.715881 
0.000000 0.000000 0.000000 174.465721 1.998187 -13.819828 0.000000 -0.010000 -0.060000 -47.862745 16.196472 34.219972 0.055000 0.000000 -0.055000 -127.096502 -15.615359 18.365240 0.000000 0.015000 -0.120000 -1.132981 -0.248251 -7.109338 -0.000000 -0.010000 -0.100000 -4.019058 157.332479 -15.212163 -0.000000 -0.010000 -0.060000 47.887535 -17.688873 38.111100 -0.055000 0.000000 -0.055000 134.319891 19.699975 48.093309 -0.000000 0.015000 -0.120000 0.510357 -0.876217 -49.093945 0.000000 -0.010000 -0.100000 -1.771148 -156.290205 -13.544298 0.000000 0.000000 0.040000 7.182221 -4.435601 15.092589 0.000000 -0.000000 0.100000 6.138261 0.522548 -4.957680 0.098000 -0.000000 0.075000 119.815889 -7.318492 -122.924554 0.000000 0.090000 0.009000 19.425326 -6.795873 47.438707 -0.098000 -0.000000 0.075000 -138.542574 7.991249 -116.807873 -0.000000 0.090000 0.009000 5.801821 1.416794 18.666287 
0.000000 0.000000 0.000000 174.395480 2.098268 -13.888410 0.000000 -0.010000 -0.060000 -47.866048 16.177838 34.171474 0.055000 0.000000 -0.055000 -127.069386 -15.479659 17.916474 -0.000000 0.015000 -0.120000 -1.133034 -0.257302 -6.438629 -0.000000 -0.010000 -0.100000 -3.763336 157.306920 -14.865552 -0.000000 -0.010000 -0.060000 47.783361 -17.830682 38.200637 -0.055000 0.000000 -0.055000 134.236303 19.771246 49.677680 -0.000000 0.015000 -0.120000 0.469988 -0.820999 -51.401214 0.000000 -0.010000 -0.100000 -1.758250 -156.293511 -13.343844 -0.000000 -0.000000 0.040000 7.124225 -4.410963 15.137185 -0.000000 -0.000000 0.100000 6.245947 0.516787 -4.950957 0.098000 -0.000000 0.075000 119.594454 -7.238574 -123.063439 0.000000 0.090000 0.009000 20.298947 -7.154879 48.421701 -0.098000 -0.000000 0.075000 -138.608526 8.320248 -117.076273 0.000000 0.090000 0.009000 5.788416 1.418105 18.627179 
0.000000 0.000000 0.000000 174.335237 2.216982 -13.936803 0.000000 -0.010000 -0.060000 -47.869128 16.159589 34.124677 0.055000 -0.000000 -0.055000 -127.050480 -15.322114 17.498777 0.000000 0.015000 -0.120000 -1.131567 -0.265663 -5.777420 -0.000000 -0.010000 -0.100000 -3.523618 157.257237 -14.657253 -0.000000 -0.010000 -0.060000 47.680383 -17.968262 38.285393 -0.055000 0.000000 -0.055000 134.150297 19.882670 51.228283 -0.000000 0.015000 -0.120000 0.429609 -0.771707 -53.625335 0.000000 -0.010000 -0.100000 -1.793704 -156.319097 -13.022640 -0.000000 0.000000 0.040000 7.053975 -4.402963 15.158871 0.000000 -0.000000 0.100000 6.326336 0.535022 -4.947254 0.098000 -0.000000 0.075000 119.359960 -7.121103 -123.204796 0.000000 0.090000 0.009000 21.149093 -7.515790 49.384672 -0.098000 -0.000000 0.075000 -138.685734 8.614519 -117.326667 -0.000000 0.090000 0.009000 5.810891 1.414455 18.556307 
